 <svg xmlns="http://www.w3.org/2000/svg" version="1.1" xmlns:xlink="http://www.w3.org/1999/xlink" xmlns:svgjs="http://svgjs.com/svgjs" width="1440" height="560" preserveAspectRatio="none" viewBox="0 0 1440 560">
    <g mask="url(&quot;#SvgjsMask1000&quot;)" fill="none">
        <rect width="1440" height="560" x="0" y="0" fill="#0e2a47"></rect>
        <path d="M0,391.474C71.607,399.114,122.622,323.472,179.487,279.288C231.202,239.106,296.219,206.915,317.323,144.917C338.001,84.17,306.245,20.214,288.687,-41.507C273.351,-95.419,245.319,-141.193,221.5,-191.931C187.438,-264.486,187.012,-362.117,118.581,-403.85C50.144,-445.587,-44.571,-432.767,-116.965,-398.347C-185.961,-365.542,-212.125,-284.746,-258.927,-224.362C-302.676,-167.916,-381.117,-126.46,-383.028,-55.071C-384.953,16.842,-311.706,65.187,-268.213,122.489C-234.339,167.118,-196.014,203.769,-156.452,243.444C-104.71,295.334,-72.865,383.699,0,391.474" fill="#0b2239"></path>
        <path d="M1440 1023.4200000000001C1525.225 1021.758 1584.969 942.03 1650.421 887.422 1708.126 839.277 1772.317 794.202 1798.961 723.932 1824.879 655.577 1796.554 582.177 1793.857 509.123 1790.772 425.577 1829.263 332.623 1781.968 263.683 1734.46 194.43200000000002 1636.117 189.949 1556.521 163.166 1473.468 135.219 1392.478 89.582 1305.963 103.512 1214.796 118.19099999999997 1126.859 166.85399999999998 1072.051 241.17000000000002 1018.738 313.459 1016.303 409.01 1014.428 498.812 1012.733 579.991 1023.845 660.938 1061.79 732.723 1098.38 801.944 1162.158 848.019 1224.237 895.733 1291.867 947.7139999999999 1354.717 1025.083 1440 1023.4200000000001" fill="#113255"></path>
    </g>
    <defs>
        <mask id="SvgjsMask1000">
            <rect width="1440" height="560" fill="#ffffff"></rect>
        </mask>
    </defs>
</svg>