<?xml version="1.0" encoding="utf-8"?>
<!-- Generator: Adobe Illustrator 25.3.0, SVG Export Plug-In . SVG Version: 6.00 Build 0)  -->
<svg version="1.1" xmlns="http://www.w3.org/2000/svg" xmlns:xlink="http://www.w3.org/1999/xlink" x="0px" y="0px"
	 viewBox="0 0 720 720" style="enable-background:new 0 0 720 720;" xml:space="preserve">
<style type="text/css">
	.st0{display:none;}
	.st1{display:inline;}
	.st2{fill:#0E2A47;}
	.st3{fill:none;stroke:#0E2A47;stroke-width:25;stroke-miterlimit:10;}
	.st4{fill:none;stroke:#0E2A47;stroke-width:20;stroke-miterlimit:10;}
	.st5{display:inline;fill:none;}
	.st6{display:inline;fill:#0E2A47;}
	.st7{font-family:'MyriadPro-BoldCond';}
	.st8{font-size:350px;}
	.st9{fill:#0E2A47;stroke:#0E2A47;stroke-width:25;stroke-miterlimit:10;}
</style>
<g id="Layer_1" class="st0">
	<g class="st1">
		<g>
			<path class="st2" d="M573.63,160c2.96,0,5.37,2.41,5.37,5.37v418.26c0,2.96-2.41,5.37-5.37,5.37H155.37
				c-2.96,0-5.37-2.41-5.37-5.37V165.37c0-2.96,2.41-5.37,5.37-5.37H573.63 M573.63,135H155.37C138.6,135,125,148.6,125,165.37
				v418.26c0,16.77,13.6,30.37,30.37,30.37h418.26c16.77,0,30.37-13.6,30.37-30.37V165.37C604,148.6,590.4,135,573.63,135
				L573.63,135z"/>
		</g>
		<g>
			<g>
				<line class="st3" x1="61" y1="490.5" x2="146" y2="490.5"/>
			</g>
			<g>
				<line class="st3" x1="61" y1="369.5" x2="146" y2="369.5"/>
			</g>
			<g>
				<line class="st3" x1="61" y1="259.5" x2="146" y2="259.5"/>
			</g>
		</g>
		<g>
			<g>
				<line class="st3" x1="586" y1="485.5" x2="671" y2="485.5"/>
			</g>
			<g>
				<line class="st3" x1="586" y1="364.5" x2="671" y2="364.5"/>
			</g>
			<g>
				<line class="st3" x1="586" y1="254.5" x2="671" y2="254.5"/>
			</g>
		</g>
		<path class="st4" d="M226.5,231.5c0,148,276.5,144.76,276.5,144.76V531.5H297.77"/>
		<circle class="st4" cx="228" cy="211" r="16"/>
		<circle class="st4" cx="503" cy="381" r="16"/>
		<circle class="st4" cx="280" cy="531" r="16"/>
	</g>
	<rect x="301.53" y="689" class="st5" width="45.96" height="2.04"/>
</g>
<g id="Layer_2" class="st0">
	<text transform="matrix(1 0 0 1 39.064 469.6172)" class="st6 st7 st8">&lt; / &gt;</text>
</g>
<g id="Layer_3">
	<g>
		<path class="st3" d="M673,516.73c0,8.68-0.37,17.28-1.1,25.77H58.1c-0.72-8.49-1.1-17.1-1.1-25.77
			c0-167.75,137.9-303.74,308-303.74S673,348.98,673,516.73z"/>
		<ellipse class="st2" cx="523.16" cy="398.72" rx="38.84" ry="39.28"/>
		<ellipse class="st2" cx="218.83" cy="398.94" rx="38.84" ry="39.28"/>
		<line class="st3" x1="85" y1="157" x2="180" y2="275"/>
		<line class="st3" x1="536.83" y1="263.44" x2="654.83" y2="168.44"/>
	</g>
</g>
<g id="Layer_4" class="st0">
	<g class="st1">
		<path class="st3" d="M361.56,103.36v466.81c-0.72,0.03-1.45,0.04-2.18,0.04c-5.24,0-10.4-0.68-15.45-1.96
			c-9.15,33.69-41.73,56.6-77.49,52.59c-39.51-4.43-67.95-40.06-63.52-79.57c0.17-1.55,0.41-3.08,0.68-4.58
			c-2.4-0.1-4.81-0.27-7.23-0.55c-55.38-6.22-95.24-56.15-89.02-111.53c2.79-24.96,14.48-46.76,31.54-62.62
			c-28.69-20.61-45.71-55.68-41.5-93.28c5.74-51.15,48.78-89.06,98.97-89.65c-1.35-6.99-1.69-14.29-0.85-21.74
			c4.43-39.51,40.06-67.95,79.57-63.52c17.9,2.01,33.51,10.43,44.83,22.7c12.36-8.53,25.64-13.19,39.48-13.19
			C360.11,103.33,360.84,103.34,361.56,103.36z"/>
		<path class="st3" d="M365.92,580.03"/>
		<circle class="st9" cx="551.37" cy="186.24" r="29.45"/>
		<circle class="st9" cx="553.55" cy="410.95" r="29.45"/>
		<circle class="st3" cx="553.55" cy="516.76" r="29.45"/>
		<circle class="st9" cx="264.47" cy="268.05" r="29.45"/>
		<circle class="st3" cx="264.47" cy="422.95" r="29.45"/>
		<circle class="st3" cx="551.37" cy="298.59" r="29.45"/>
		<line class="st3" x1="551.37" y1="186.24" x2="351.74" y2="186.24"/>
		<line class="st3" x1="361.56" y1="298.59" x2="521.91" y2="298.59"/>
		<line class="st3" x1="361.56" y1="416.41" x2="521.91" y2="416.41"/>
		<line class="st3" x1="374.65" y1="516.76" x2="521.91" y2="516.76"/>
		<line class="st3" x1="293.92" y1="274.59" x2="361.56" y2="274.59"/>
	</g>
</g>
</svg>
