<?xml version="1.0" encoding="utf-8"?>
<!-- Generator: Adobe Illustrator 25.3.0, SVG Export Plug-In . SVG Version: 6.00 Build 0)  -->
<svg version="1.1" xmlns="http://www.w3.org/2000/svg" xmlns:xlink="http://www.w3.org/1999/xlink" x="0px" y="0px"
	 viewBox="0 0 720 720" style="enable-background:new 0 0 720 720;" xml:space="preserve">
<style type="text/css">
	.st0{display:none;}
	.st1{display:inline;}
	.st2{fill:#0E2A47;}
	.st3{fill:none;stroke:#0E2A47;stroke-width:25;stroke-miterlimit:10;}
	.st4{fill:none;stroke:#0E2A47;stroke-width:20;stroke-miterlimit:10;}
	.st5{display:inline;fill:none;}
	.st6{font-family:'MyriadPro-BoldCond';}
	.st7{font-size:350px;}
</style>
<g id="Layer_1" class="st0">
	<g class="st1">
		<g>
			<path class="st2" d="M573.63,160c2.96,0,5.37,2.41,5.37,5.37v418.26c0,2.96-2.41,5.37-5.37,5.37H155.37
				c-2.96,0-5.37-2.41-5.37-5.37V165.37c0-2.96,2.41-5.37,5.37-5.37H573.63 M573.63,135H155.37C138.6,135,125,148.6,125,165.37
				v418.26c0,16.77,13.6,30.37,30.37,30.37h418.26c16.77,0,30.37-13.6,30.37-30.37V165.37C604,148.6,590.4,135,573.63,135
				L573.63,135z"/>
		</g>
		<g>
			<g>
				<line class="st3" x1="61" y1="490.5" x2="146" y2="490.5"/>
			</g>
			<g>
				<line class="st3" x1="61" y1="369.5" x2="146" y2="369.5"/>
			</g>
			<g>
				<line class="st3" x1="61" y1="259.5" x2="146" y2="259.5"/>
			</g>
		</g>
		<g>
			<g>
				<line class="st3" x1="586" y1="485.5" x2="671" y2="485.5"/>
			</g>
			<g>
				<line class="st3" x1="586" y1="364.5" x2="671" y2="364.5"/>
			</g>
			<g>
				<line class="st3" x1="586" y1="254.5" x2="671" y2="254.5"/>
			</g>
		</g>
		<path class="st4" d="M226.5,231.5c0,148,276.5,144.76,276.5,144.76V531.5H297.77"/>
		<circle class="st4" cx="228" cy="211" r="16"/>
		<circle class="st4" cx="503" cy="381" r="16"/>
		<circle class="st4" cx="280" cy="531" r="16"/>
	</g>
	<rect x="301.53" y="689" class="st5" width="45.96" height="2.04"/>
</g>
<g id="Layer_2">
	<text transform="matrix(1 0 0 1 39.064 469.6172)" class="st2 st6 st7">&lt; / &gt;</text>
</g>
</svg>
