<svg xmlns="http://www.w3.org/2000/svg" version="1.1" xmlns:xlink="http://www.w3.org/1999/xlink" xmlns:svgjs="http://svgjs.com/svgjs" width="1440" height="560" preserveAspectRatio="none" viewBox="0 0 1440 560">
    <g mask="url(&quot;#SvgjsMask1052&quot;)" fill="none">
        <rect width="1440" height="560" x="0" y="0" fill="#0e2a47"></rect>
        <path d="M0,311.668C70.987,319.256,146.085,358.83,209.362,325.773C272.915,292.572,281.293,206.776,318.319,145.372C361.232,74.205,449.007,19.088,444.32,-63.884C439.656,-146.449,358.745,-202.728,295.635,-256.169C239.831,-303.423,171.066,-324.525,103.5,-352.487C27.107,-384.102,-48.659,-458.689,-126.516,-430.874C-205.182,-402.77,-204.998,-288.116,-257.82,-223.402C-308.346,-161.501,-412.811,-139.985,-427.986,-61.535C-443.09,16.551,-376.282,85.975,-330.203,150.799C-291.004,205.944,-243.269,254.26,-182.446,283.892C-126,311.391,-62.432,304.995,0,311.668" fill="#0c243c"></path>
        <path d="M1440 952.953C1512.763 944.6600000000001 1574.416 904.519 1637.448 867.2339999999999 1702.917 828.5070000000001 1776.568 796.9159999999999 1814.877 731.201 1854.819 662.684 1851.93 580.211 1851 500.907 1849.946 411.063 1870.461 305.808 1809.116 240.159 1747.6779999999999 174.41000000000003 1639.799 197.56799999999998 1551.472 180.361 1472.588 164.99400000000003 1395.164 122.043 1317.994 144.48399999999998 1240.7649999999999 166.942 1193.562 240.051 1139.974 300.026 1085.545 360.943 1019.6759999999999 417.20500000000004 1002.885 497.152 985.674 579.096 1010.424 664.182 1047.746 739.136 1084.26 812.466 1139.417 876.591 1211.343 915.798 1280.545 953.52 1361.692 961.8779999999999 1440 952.953" fill="#103052"></path>
    </g>
    <defs>
        <mask id="SvgjsMask1052">
            <rect width="1440" height="560" fill="#ffffff"></rect>
        </mask>
    </defs>
</svg>